<?xml version="1.0" encoding="utf-8" ?>
<svg baseProfile="tiny" height="597" version="1.2" width="845" xmlns="http://www.w3.org/2000/svg" xmlns:ev="http://www.w3.org/2001/xml-events" xmlns:xlink="http://www.w3.org/1999/xlink"><defs /><g id="rooms" /><g id="walls"><line stroke="#4169E1" stroke-linecap="round" stroke-width="2" x1="95.7356" x2="165.0615" y1="257.4959" y2="257.0832" /><line stroke="#4169E1" stroke-linecap="round" stroke-width="2" x1="168.3627" x2="168.7753" y1="261.2098" y2="395.7348" /><line stroke="#4169E1" stroke-linecap="round" stroke-width="2" x1="165.4741" x2="116.781" y1="399.0361" y2="401.512" /><line stroke="#4169E1" stroke-linecap="round" stroke-width="2" x1="174.5525" x2="174.5525" y1="396.1475" y2="335.9001" /><line stroke="#4169E1" stroke-linecap="round" stroke-width="2" x1="256.6706" x2="177.0284" y1="399.0361" y2="398.6234" /><line stroke="#4169E1" stroke-linecap="round" stroke-width="2" x1="176.6158" x2="256.2579" y1="333.4241" y2="332.1862" /><line stroke="#4169E1" stroke-linecap="round" stroke-width="2" x1="256.2579" x2="255.8453" y1="332.1862" y2="251.3061" /><line stroke="#4169E1" stroke-linecap="round" stroke-width="2" x1="255.8453" x2="129.1606" y1="251.3061" y2="251.7187" /><line stroke="#4169E1" stroke-linecap="round" stroke-width="2" x1="129.1606" x2="94.9103" y1="251.7187" y2="250.4808" /><line stroke="#4169E1" stroke-linecap="round" stroke-width="2" x1="92.4344" x2="92.0218" y1="248.0048" y2="69.3258" /><line stroke="#4169E1" stroke-linecap="round" stroke-width="2" x1="92.0218" x2="92.4344" y1="396.1475" y2="260.3844" /><line stroke="#4169E1" stroke-linecap="round" stroke-width="2" x1="111.0038" x2="416.7802" y1="65.1993" y2="64.7866" /><line stroke="#4169E1" stroke-linecap="round" stroke-width="2" x1="416.7802" x2="439.4761" y1="64.7866" y2="65.1993" /><line stroke="#4169E1" stroke-linecap="round" stroke-width="2" x1="441.952" x2="442.7774" y1="67.2625" y2="443.6027" /><line stroke="#4169E1" stroke-linecap="round" stroke-width="2" x1="440.3014" x2="381.7046" y1="446.9039" y2="448.1418" /><line stroke="#4169E1" stroke-linecap="round" stroke-width="2" x1="381.7046" x2="331.3609" y1="448.1418" y2="446.9039" /><line stroke="#4169E1" stroke-linecap="round" stroke-width="2" x1="327.647" x2="328.0596" y1="443.6027" y2="297.9359" /><line stroke="#4169E1" stroke-linecap="round" stroke-width="2" x1="292.5714" x2="85.832" y1="58.1842" y2="59.0095" /><line stroke="#4169E1" stroke-linecap="round" stroke-width="2" x1="448.5545" x2="292.9841" y1="59.4221" y2="58.1842" /><line stroke="#4169E1" stroke-linecap="round" stroke-width="2" x1="448.5545" x2="448.5545" y1="453.0937" y2="59.4221" /><line stroke="#4169E1" stroke-linecap="round" stroke-width="2" x1="321.4572" x2="448.5545" y1="452.681" y2="453.0937" /><line stroke="#4169E1" stroke-linecap="round" stroke-width="2" x1="321.0445" x2="321.4572" y1="409.3524" y2="452.681" /><line stroke="#4169E1" stroke-linecap="round" stroke-width="2" x1="289.2702" x2="318.156" y1="406.4638" y2="405.6385" /><line stroke="#4169E1" stroke-linecap="round" stroke-width="2" x1="85.832" x2="85.832" y1="59.0095" y2="405.2259" /><line stroke="#4169E1" stroke-linecap="round" stroke-width="2" x1="85.832" x2="132.0492" y1="405.2259" y2="408.1144" /><line stroke="#4169E1" stroke-linecap="round" stroke-width="2" x1="132.0492" x2="155.1578" y1="408.1144" y2="405.2259" /><line stroke="#4169E1" stroke-linecap="round" stroke-width="2" x1="155.1578" x2="260.7971" y1="405.2259" y2="405.2259" /></g><g id="pillars" /><g id="windows"><rect fill="#00CED1" fill-opacity="0.7" height="9.0784" stroke="darkcyan" stroke-width="1" width="93.6724" x="338.376" y="445.6659" /><text fill="black" font-size="4" font-weight="bold" text-anchor="middle" x="385.21217005843243" y="450.2051178722547">W1</text><rect fill="#00CED1" fill-opacity="0.7" height="9.0784" stroke="darkcyan" stroke-width="1" width="64.374" x="118.0189" y="57.3589" /><text fill="black" font-size="4" font-weight="bold" text-anchor="middle" x="150.20592383638927" y="61.898045536973605">W2</text><rect fill="#00CED1" fill-opacity="0.7" height="63.9613" stroke="darkcyan" stroke-width="1" width="9.491" x="84.1813" y="90.7838" /><text fill="black" font-size="4" font-weight="bold" text-anchor="middle" x="88.92685875478541" y="122.76445698166432">W3</text><rect fill="#00CED1" fill-opacity="0.7" height="9.0784" stroke="darkcyan" stroke-width="1" width="40.0274" x="256.6706" y="57.3589" /><text fill="black" font-size="4" font-weight="bold" text-anchor="middle" x="276.684263550272" y="61.898045536973605">W4</text><rect fill="#00CED1" fill-opacity="0.7" height="26.4098" stroke="darkcyan" stroke-width="1" width="9.0784" x="441.1267" y="216.2305" /><text fill="black" font-size="4" font-weight="bold" text-anchor="middle" x="445.66592786621" y="229.4354221237155">W5</text><rect fill="#00CED1" fill-opacity="0.7" height="25.5845" stroke="darkcyan" stroke-width="1" width="8.6657" x="441.5394" y="261.2098" /><text fill="black" font-size="4" font-weight="bold" text-anchor="middle" x="445.87225468466653" y="274.00201491033647">W6</text><rect fill="#00CED1" fill-opacity="0.7" height="25.5845" stroke="darkcyan" stroke-width="1" width="8.6657" x="84.594" y="279.3665" /><text fill="black" font-size="4" font-weight="bold" text-anchor="middle" x="88.92685875478541" y="292.1587749345154">W7</text></g><g id="doors"><rect fill="#228B22" fill-opacity="0.7" height="12.7923" stroke="darkgreen" stroke-width="1" width="54.0576" x="257.4959" y="397.7981" /><text fill="white" font-size="6" font-weight="bold" text-anchor="middle" x="284.524682651622" y="404.19423735643767">D1</text><rect fill="#228B22" fill-opacity="0.7" height="11.1416" stroke="darkgreen" stroke-width="1" width="37.1388" x="114.7177" y="397.7981" /><text fill="white" font-size="5" font-weight="bold" text-anchor="middle" x="133.28712472294984" y="403.3689300826113">D2</text><rect fill="#228B22" fill-opacity="0.7" height="37.5515" stroke="darkgreen" stroke-width="1" width="9.0784" x="319.8066" y="335.0748" /><text fill="white" font-size="4" font-weight="bold" text-anchor="middle" x="324.3457586137417" y="353.85049365303246">D3</text><rect fill="#228B22" fill-opacity="0.7" height="9.491" stroke="darkgreen" stroke-width="1" width="28.8858" x="114.7177" y="249.2428" /><text fill="white" font-size="4" font-weight="bold" text-anchor="middle" x="129.16058835381827" y="253.98831352004837">D4</text><rect fill="#228B22" fill-opacity="0.7" height="29.2984" stroke="darkgreen" stroke-width="1" width="9.0784" x="248.8301" y="271.1134" /><text fill="white" font-size="4" font-weight="bold" text-anchor="middle" x="253.3693330646786" y="285.76264356236146">D5</text></g><g id="pillar_polygons"><polygon fill="#FFD700" opacity="0.7" points="92.0218,446.0786 89.5458,446.9039 85.4193,451.4431 87.0699,454.7443 89.5458,454.3317 93.6724,450.2051 94.085,448.1418" stroke="darkred" stroke-width="0" /><text fill="black" font-size="4" font-weight="bold" text-anchor="middle" x="90.19429492530439" y="450.26406839181374">P</text><polygon fill="#FFD700" opacity="0.7" points="210.0407,445.6659 203.4382,451.0304 204.2636,454.3317 206.7395,454.7443 211.6913,449.7925" stroke="darkred" stroke-width="0" /><text fill="black" font-size="4" font-weight="bold" text-anchor="middle" x="207.23465645778765" y="451.11295587346365">P</text></g><g id="foundation"><polygon fill="none" opacity="1.0" points="85.4193,58.1842 448.5545,58.1842 448.5545,454.7443 85.4193,454.7443" stroke="#FF0000" stroke-width="1" /><text fill="#FF0000" font-size="5" font-weight="bold" opacity="0.8" text-anchor="middle" x="266.98690308281283" y="256.4642353415273">FOUNDATION</text></g><g font-size="5" id="legend"><rect fill="#8B4513" height="6" stroke="black" stroke-width="1" width="8" x="8" y="8" /><text fill="black" font-family="Arial" x="20" y="12">Walls (Hatching)</text><rect fill="#4169E1" height="6" stroke="black" stroke-width="1" width="8" x="8" y="18" /><text fill="black" font-family="Arial" x="20" y="22">Walls (DL)</text><rect fill="#00CED1" height="6" stroke="black" stroke-width="1" width="8" x="8" y="28" /><text fill="black" font-family="Arial" x="20" y="32">Windows</text><rect fill="#228B22" height="6" stroke="black" stroke-width="1" width="8" x="8" y="38" /><text fill="black" font-family="Arial" x="20" y="42">Doors</text><rect fill="#FF6347" height="6" stroke="black" stroke-width="1" width="8" x="8" y="48" /><text fill="black" font-family="Arial" x="20" y="52">Pillars</text><rect fill="#FFD700" height="6" stroke="black" stroke-width="1" width="8" x="8" y="58" /><text fill="black" font-family="Arial" x="20" y="62">Pillar Polygons</text><rect fill="#F0F8FF" height="6" stroke="black" stroke-width="1" width="8" x="8" y="68" /><text fill="black" font-family="Arial" x="20" y="72">Rooms</text><rect fill="#FF0000" height="6" stroke="black" stroke-width="1" width="8" x="8" y="78" /><text fill="black" font-family="Arial" x="20" y="82">Foundation</text><rect fill="#FFFF00" height="6" stroke="black" stroke-width="1" width="8" x="8" y="88" /><text fill="black" font-family="Arial" x="20" y="92">Building Outline</text><rect fill="#FF00FF" height="6" stroke="black" stroke-width="1" width="8" x="8" y="98" /><text fill="black" font-family="Arial" x="20" y="102">Street Object</text></g><g id="title"><text fill="black" font-family="Arial" font-size="8" font-weight="bold" text-anchor="middle" x="422" y="12">Floor Plan Detection Results</text></g><g font-size="4" id="statistics"><text fill="black" font-family="Arial" x="784" y="12">Walls: 27</text><text fill="black" font-family="Arial" x="784" y="22">Windows: 7</text><text fill="black" font-family="Arial" x="784" y="32">Doors: 5</text><text fill="black" font-family="Arial" x="784" y="42">Pillars: 0</text><text fill="black" font-family="Arial" x="784" y="52">Pillar Polygons: 2</text><text fill="black" font-family="Arial" x="784" y="62">Rooms: 1</text><text fill="black" font-family="Arial" x="784" y="72">Foundations: 1</text><text fill="black" font-family="Arial" x="784" y="82">Building Outlines: 0</text></g></svg>