<?xml version="1.0" encoding="utf-8" ?>
<svg baseProfile="tiny" height="597" version="1.2" width="845" xmlns="http://www.w3.org/2000/svg" xmlns:ev="http://www.w3.org/2001/xml-events" xmlns:xlink="http://www.w3.org/1999/xlink"><defs /><g id="rooms" /><g id="walls"><line stroke="#4169E1" stroke-linecap="round" stroke-width="2" x1="247.5922" x2="291.7461" y1="270.7008" y2="270.7008" /><line stroke="#4169E1" stroke-linecap="round" stroke-width="2" x1="243.4656" x2="243.8783" y1="363.1352" y2="273.5894" /><line stroke="#4169E1" stroke-linecap="round" stroke-width="2" x1="291.7461" x2="245.5289" y1="366.0238" y2="365.1985" /><line stroke="#4169E1" stroke-linecap="round" stroke-width="2" x1="294.222" x2="294.6347" y1="337.5507" y2="363.1352" /><line stroke="#4169E1" stroke-linecap="round" stroke-width="2" x1="299.9992" x2="299.9992" y1="363.1352" y2="338.376" /><line stroke="#4169E1" stroke-linecap="round" stroke-width="2" x1="373.0389" x2="302.8878" y1="365.6111" y2="365.6111" /><line stroke="#4169E1" stroke-linecap="round" stroke-width="2" x1="373.4515" x2="373.0389" y1="411.003" y2="365.6111" /><line stroke="#4169E1" stroke-linecap="round" stroke-width="2" x1="447.7292" x2="375.9275" y1="415.1296" y2="413.4789" /><line stroke="#4169E1" stroke-linecap="round" stroke-width="2" x1="481.9794" x2="447.7292" y1="414.3043" y2="415.1296" /><line stroke="#4169E1" stroke-linecap="round" stroke-width="2" x1="236.8632" x2="237.6885" y1="272.3514" y2="362.7225" /><line stroke="#4169E1" stroke-linecap="round" stroke-width="2" x1="141.5402" x2="234.3873" y1="270.7008" y2="270.2881" /><line stroke="#4169E1" stroke-linecap="round" stroke-width="2" x1="138.239" x2="137.8263" y1="363.1352" y2="274.002" /><line stroke="#4169E1" stroke-linecap="round" stroke-width="2" x1="234.7999" x2="140.7149" y1="366.0238" y2="365.6111" /><line stroke="#4169E1" stroke-linecap="round" stroke-width="2" x1="294.222" x2="294.222" y1="274.4147" y2="295.46" /><line stroke="#4169E1" stroke-linecap="round" stroke-width="2" x1="299.9992" x2="300.4118" y1="296.698" y2="275.24" /><line stroke="#4169E1" stroke-linecap="round" stroke-width="2" x1="314.0294" x2="385.4185" y1="139.0643" y2="139.8896" /><line stroke="#4169E1" stroke-linecap="round" stroke-width="2" x1="387.8944" x2="387.0691" y1="144.0161" y2="172.9019" /><line stroke="#4169E1" stroke-linecap="round" stroke-width="2" x1="389.1324" x2="485.6933" y1="174.9651" y2="174.1398" /><line stroke="#4169E1" stroke-linecap="round" stroke-width="2" x1="487.7566" x2="487.7566" y1="176.2031" y2="262.4477" /><line stroke="#4169E1" stroke-linecap="round" stroke-width="2" x1="484.0427" x2="432.0484" y1="264.9236" y2="265.7489" /><line stroke="#4169E1" stroke-linecap="round" stroke-width="2" x1="432.0484" x2="303.3004" y1="265.7489" y2="264.0983" /><line stroke="#4169E1" stroke-linecap="round" stroke-width="2" x1="300.8245" x2="299.9992" y1="261.6224" y2="178.679" /><line stroke="#4169E1" stroke-linecap="round" stroke-width="2" x1="299.9992" x2="300.4118" y1="178.679" y2="142.7782" /><line stroke="#4169E1" stroke-linecap="round" stroke-width="2" x1="353.2315" x2="484.868" y1="32.187" y2="32.187" /><line stroke="#4169E1" stroke-linecap="round" stroke-width="2" x1="487.7566" x2="488.1693" y1="34.6629" y2="163.8235" /><line stroke="#4169E1" stroke-linecap="round" stroke-width="2" x1="484.4554" x2="397.7981" y1="167.95" y2="167.95" /><line stroke="#4169E1" stroke-linecap="round" stroke-width="2" x1="394.4969" x2="393.6716" y1="165.4741" y2="132.4618" /><line stroke="#4169E1" stroke-linecap="round" stroke-width="2" x1="393.6716" x2="302.4751" y1="132.4618" y2="132.0492" /><line stroke="#4169E1" stroke-linecap="round" stroke-width="2" x1="131.2239" x2="131.6365" y1="25.5845" y2="372.2136" /><line stroke="#4169E1" stroke-linecap="round" stroke-width="2" x1="493.9464" x2="131.6365" y1="25.9972" y2="25.5845" /><line stroke="#4169E1" stroke-linecap="round" stroke-width="2" x1="494.3591" x2="493.9464" y1="419.6687" y2="25.9972" /><line stroke="#4169E1" stroke-linecap="round" stroke-width="2" x1="368.087" x2="492.2958" y1="420.0814" y2="420.9067" /><line stroke="#4169E1" stroke-linecap="round" stroke-width="2" x1="366.8491" x2="368.087" y1="375.9275" y2="420.0814" /><line stroke="#4169E1" stroke-linecap="round" stroke-width="2" x1="131.6365" x2="363.1352" y1="372.2136" y2="372.2136" /></g><g id="pillars" /><g id="windows"><rect fill="#00CED1" fill-opacity="0.7" height="9.0784" stroke="darkcyan" stroke-width="1" width="93.6724" x="384.1805" y="412.6536" /><text fill="black" font-size="4" font-weight="bold" text-anchor="middle" x="431.0167237557929" y="417.1928269192021">W1</text><rect fill="#00CED1" fill-opacity="0.7" height="9.9037" stroke="darkcyan" stroke-width="1" width="63.9613" x="398.6234" y="23.5213" /><text fill="black" font-size="4" font-weight="bold" text-anchor="middle" x="430.60407011887975" y="28.473100947007858">W2</text><rect fill="#00CED1" fill-opacity="0.7" height="9.0784" stroke="darkcyan" stroke-width="1" width="63.9613" x="163.8235" y="24.3466" /><text fill="black" font-size="4" font-weight="bold" text-anchor="middle" x="195.80415071529316" y="28.885754583921017">W3</text><rect fill="#00CED1" fill-opacity="0.7" height="9.491" stroke="darkcyan" stroke-width="1" width="38.3768" x="159.697" y="364.7858" /><text fill="black" font-size="4" font-weight="bold" text-anchor="middle" x="178.88535160185373" y="369.53133185573245">W4</text><rect fill="#00CED1" fill-opacity="0.7" height="9.0784" stroke="darkcyan" stroke-width="1" width="38.7894" x="310.7282" y="364.7858" /><text fill="black" font-size="4" font-weight="bold" text-anchor="middle" x="330.1229095305259" y="369.32500503727584">W5</text><rect fill="#00CED1" fill-opacity="0.7" height="26.4098" stroke="darkcyan" stroke-width="1" width="9.491" x="486.5186" y="228.1975" /><text fill="black" font-size="4" font-weight="bold" text-anchor="middle" x="491.26415474511384" y="241.40237759419708">W6</text><rect fill="#00CED1" fill-opacity="0.7" height="26.8225" stroke="darkcyan" stroke-width="1" width="9.0784" x="486.9313" y="183.6309" /><text fill="black" font-size="4" font-weight="bold" text-anchor="middle" x="491.47048156357044" y="197.04211162603264">W7</text><rect fill="#00CED1" fill-opacity="0.7" height="25.9972" stroke="darkcyan" stroke-width="1" width="8.6657" x="130.3985" y="200.9623" /><text fill="black" font-size="4" font-weight="bold" text-anchor="middle" x="134.7314124521459" y="213.9609107394721">W8</text></g><g id="doors"><rect fill="#228B22" fill-opacity="0.7" height="33.0123" stroke="darkgreen" stroke-width="1" width="9.0784" x="292.5714" y="146.9047" /><text fill="white" font-size="4" font-weight="bold" text-anchor="middle" x="297.1106185774733" y="163.4108402176103">D1</text><rect fill="#228B22" fill-opacity="0.7" height="8.6657" stroke="darkgreen" stroke-width="1" width="33.0123" x="349.5176" y="131.2239" /><text fill="white" font-size="4" font-weight="bold" text-anchor="middle" x="366.0237759419706" y="135.5567197259722">D2</text><rect fill="#228B22" fill-opacity="0.7" height="9.0784" stroke="darkgreen" stroke-width="1" width="33.0123" x="312.3788" y="263.273" /><text fill="white" font-size="4" font-weight="bold" text-anchor="middle" x="328.8849486197864" y="267.8122103566391">D3</text><rect fill="#228B22" fill-opacity="0.7" height="29.7111" stroke="darkgreen" stroke-width="1" width="8.6657" x="292.9841" y="196.8358" /><text fill="white" font-size="4" font-weight="bold" text-anchor="middle" x="297.3169453959299" y="211.69131573644972">D4</text><rect fill="#228B22" fill-opacity="0.7" height="29.2984" stroke="darkgreen" stroke-width="1" width="9.0784" x="236.0379" y="303.7131" /><text fill="white" font-size="4" font-weight="bold" text-anchor="middle" x="240.57707032037075" y="318.36228087850094">D5</text></g><g id="foundation"><polygon fill="none" opacity="1.0" points="131.2239,25.5845 494.3591,25.5845 494.3591,420.9067 131.2239,420.9067" stroke="#FF0000" stroke-width="1" /><text fill="#FF0000" font-size="5" font-weight="bold" opacity="0.8" text-anchor="middle" x="312.7914567801733" y="223.24561757001814">FOUNDATION</text></g><g id="building_outline"><polygon fill="none" opacity="1.0" points="134.9377,28.8858 134.5251,188.9954 134.9377,200.5497 134.9377,226.5468 134.5251,267.3996 134.9377,369.325 159.697,369.325 197.6611,369.7377 241.4024,370.1503 298.3486,370.1503 311.1408,368.9124 349.105,369.325 370.563,369.325 370.9756,417.6055 384.1805,417.6055 477.0276,417.6055 491.8831,417.6055 491.8831,268.6375 491.8831,254.1946 491.4705,229.0228 491.8831,210.0407 491.4705,184.0435 491.8831,171.2513 491.4705,28.8858 462.5847,28.8858 398.6234,28.8858 297.5233,29.2984 228.1975,28.8858 164.2361,28.8858 134.9377,28.8858" stroke="#FFFF00" stroke-width="1" /><text fill="#FFFF00" font-size="5" font-weight="bold" opacity="0.8" text-anchor="middle" x="319.6277520317013" y="235.29510376788232">BUILDING OUTLINE</text></g><g id="street"><line stroke="#FFA500" stroke-linecap="round" stroke-width="1" x1="134.9377" x2="134.9377" y1="28.8858" y2="16.0153" /><line stroke="#0000FF" stroke-linecap="round" stroke-width="1" x1="134.9377" x2="134.9377" y1="28.8858" y2="41.7562" /><line stroke="#FF00FF" stroke-dasharray="(5, 5)" stroke-linecap="round" stroke-width="0" x1="134.9377" x2="134.9377" y1="16.0153" y2="41.7562" /><circle cx="134.9377" cy="28.8858" fill="#00FF00" r="3" stroke="darkgreen" stroke-width="0" /><circle cx="134.9377" cy="16.0153" fill="#FFA500" r="2" stroke="darkorange" stroke-width="0" /><circle cx="134.9377" cy="41.7562" fill="#0000FF" r="2" stroke="darkblue" stroke-width="0" /><text fill="#00FF00" font-size="4" font-weight="bold" text-anchor="middle" x="134.93773927060246" y="24.885754583921017">J</text><text fill="#FFA500" font-size="4" font-weight="bold" text-anchor="middle" x="134.93773927060246" y="12.015297381826418">Street</text><text fill="#0000FF" font-size="4" font-weight="bold" text-anchor="middle" x="134.93773927060246" y="37.75621178601562">Home</text></g><g font-size="5" id="legend"><rect fill="#8B4513" height="6" stroke="black" stroke-width="1" width="8" x="8" y="8" /><text fill="black" font-family="Arial" x="20" y="12">Walls (Hatching)</text><rect fill="#4169E1" height="6" stroke="black" stroke-width="1" width="8" x="8" y="18" /><text fill="black" font-family="Arial" x="20" y="22">Walls (DL)</text><rect fill="#00CED1" height="6" stroke="black" stroke-width="1" width="8" x="8" y="28" /><text fill="black" font-family="Arial" x="20" y="32">Windows</text><rect fill="#228B22" height="6" stroke="black" stroke-width="1" width="8" x="8" y="38" /><text fill="black" font-family="Arial" x="20" y="42">Doors</text><rect fill="#FF6347" height="6" stroke="black" stroke-width="1" width="8" x="8" y="48" /><text fill="black" font-family="Arial" x="20" y="52">Pillars</text><rect fill="#FFD700" height="6" stroke="black" stroke-width="1" width="8" x="8" y="58" /><text fill="black" font-family="Arial" x="20" y="62">Pillar Polygons</text><rect fill="#F0F8FF" height="6" stroke="black" stroke-width="1" width="8" x="8" y="68" /><text fill="black" font-family="Arial" x="20" y="72">Rooms</text><rect fill="#FF0000" height="6" stroke="black" stroke-width="1" width="8" x="8" y="78" /><text fill="black" font-family="Arial" x="20" y="82">Foundation</text><rect fill="#FFFF00" height="6" stroke="black" stroke-width="1" width="8" x="8" y="88" /><text fill="black" font-family="Arial" x="20" y="92">Building Outline</text><rect fill="#FF00FF" height="6" stroke="black" stroke-width="1" width="8" x="8" y="98" /><text fill="black" font-family="Arial" x="20" y="102">Street Object</text></g><g id="title"><text fill="black" font-family="Arial" font-size="8" font-weight="bold" text-anchor="middle" x="422" y="12">Floor Plan Detection Results</text></g><g font-size="4" id="statistics"><text fill="black" font-family="Arial" x="784" y="12">Walls: 34</text><text fill="black" font-family="Arial" x="784" y="22">Windows: 8</text><text fill="black" font-family="Arial" x="784" y="32">Doors: 5</text><text fill="black" font-family="Arial" x="784" y="42">Pillars: 0</text><text fill="black" font-family="Arial" x="784" y="52">Pillar Polygons: 0</text><text fill="black" font-family="Arial" x="784" y="62">Rooms: 1</text><text fill="black" font-family="Arial" x="784" y="72">Foundations: 1</text><text fill="black" font-family="Arial" x="784" y="82">Building Outlines: 1</text></g></svg>