<?xml version="1.0" encoding="utf-8" ?>
<svg baseProfile="tiny" height="3508" version="1.2" width="4963" xmlns="http://www.w3.org/2000/svg" xmlns:ev="http://www.w3.org/2001/xml-events" xmlns:xlink="http://www.w3.org/1999/xlink"><defs /><g fill="none" id="walls" stroke="black" stroke-width="14"><line stroke="black" stroke-width="14" x1="1907.1685" x2="1914.4385" y1="2372.4497" y2="2636.5938" /><line stroke="black" stroke-width="14" x1="1909.5918" x2="1912.0151" y1="2614.7837" y2="2447.5732" /><line stroke="black" stroke-width="14" x1="523.4414" x2="528.2881" y1="1962.9053" y2="2336.0996" /><line stroke="black" stroke-width="14" x1="528.2881" x2="530.7114" y1="2336.0996" y2="1846.585" /><line stroke="black" stroke-width="14" x1="1919.2852" x2="1904.7451" y1="1778.7314" y2="1921.7085" /><line stroke="black" stroke-width="14" x1="1904.7451" x2="1916.8618" y1="1921.7085" y2="1781.1548" /><line stroke="black" stroke-width="14" x1="2617.207" x2="2622.0537" y1="1759.3447" y2="2539.6602" /><line stroke="black" stroke-width="14" x1="2622.0537" x2="2617.207" y1="2539.6602" y2="1759.3447" /><line stroke="black" stroke-width="14" x1="1146.2397" x2="894.2124" y1="1492.7773" y2="1500.0474" /><line stroke="black" stroke-width="14" x1="1010.5327" x2="1008.1094" y1="1504.894" y2="1824.7749" /><line stroke="black" stroke-width="14" x1="1008.1094" x2="1008.1094" y1="1970.1753" y2="2353.063" /><line stroke="black" stroke-width="14" x1="1003.2627" x2="1197.1299" y1="2355.4863" y2="2365.1797" /><line stroke="black" stroke-width="14" x1="1197.1299" x2="1478.2373" y1="2365.1797" y2="2355.4863" /><line stroke="black" stroke-width="14" x1="1478.2373" x2="1197.1299" y1="2355.4863" y2="2365.1797" /><line stroke="black" stroke-width="14" x1="1197.1299" x2="1008.1094" y1="2365.1797" y2="2353.063" /><line stroke="black" stroke-width="14" x1="1008.1094" x2="1008.1094" y1="2353.063" y2="1970.1753" /><line stroke="black" stroke-width="14" x1="1020.2261" x2="1458.8506" y1="1936.2485" y2="1938.6719" /><line stroke="black" stroke-width="14" x1="1487.9307" x2="1497.624" y1="1912.0151" y2="1788.4248" /><line stroke="black" stroke-width="14" x1="1497.624" x2="1487.9307" y1="1788.4248" y2="1909.5918" /><line stroke="black" stroke-width="14" x1="1458.8506" x2="1015.3794" y1="1938.6719" y2="1931.4019" /><line stroke="black" stroke-width="14" x1="1015.3794" x2="1012.9561" y1="1931.4019" y2="1502.4707" /><line stroke="black" stroke-width="14" x1="1012.9561" x2="1148.6631" y1="1502.4707" y2="1492.7773" /><line stroke="black" stroke-width="14" x1="1148.6631" x2="1458.8506" y1="1492.7773" y2="1497.624" /><line stroke="black" stroke-width="14" x1="1458.8506" x2="1185.0132" y1="1497.624" y2="1492.7773" /><line stroke="black" stroke-width="14" x1="523.4414" x2="533.1348" y1="1010.5327" y2="1492.7773" /><line stroke="black" stroke-width="14" x1="533.1348" x2="518.5947" y1="1492.7773" y2="1616.3677" /><line stroke="black" stroke-width="14" x1="535.5581" x2="530.7114" y1="1492.7773" y2="964.4893" /><line stroke="black" stroke-width="14" x1="2001.6787" x2="2590.5503" y1="370.771" y2="368.3477" /><line stroke="black" stroke-width="14" x1="2617.207" x2="2622.0537" y1="382.8877" y2="1112.313" /><line stroke="black" stroke-width="14" x1="2622.0537" x2="2612.3604" y1="1112.313" y2="1243.1733" /><line stroke="black" stroke-width="14" x1="2612.3604" x2="2622.0537" y1="1243.1733" y2="1112.313" /><line stroke="black" stroke-width="14" x1="2622.0537" x2="2617.207" y1="1112.313" y2="382.8877" /><line stroke="black" stroke-width="14" x1="2590.5503" x2="2137.3857" y1="368.3477" y2="363.501" /><line stroke="black" stroke-width="14" x1="1454.0039" x2="1114.7363" y1="368.3477" y2="370.771" /><line stroke="black" stroke-width="14" x1="1114.7363" x2="1454.0039" y1="370.771" y2="368.3477" /><line stroke="black" stroke-width="14" x1="516.1714" x2="528.2881" y1="511.3247" y2="390.1577" /><line stroke="black" stroke-width="14" x1="484.668" x2="237.4873" y1="3462.9526" y2="3475.0693" /><line stroke="black" stroke-width="14" x1="1022.6494" x2="1483.084" y1="1492.7773" y2="1500.0474" /><line stroke="black" stroke-width="14" x1="1487.9307" x2="1483.084" y1="1616.3677" y2="1924.1318" /><line stroke="black" stroke-width="14" x1="1390.9971" x2="1008.1094" y1="1936.2485" y2="1931.4019" /><line stroke="black" stroke-width="14" x1="1008.1094" x2="1008.1094" y1="1931.4019" y2="1492.7773" /><line stroke="black" stroke-width="14" x1="528.2881" x2="1005.686" y1="1490.354" y2="1495.2007" /><line stroke="black" stroke-width="14" x1="1005.686" x2="1008.1094" y1="1495.2007" y2="2355.4863" /><line stroke="black" stroke-width="14" x1="1008.1094" x2="782.7388" y1="2355.4863" y2="2374.873" /><line stroke="black" stroke-width="14" x1="651.8784" x2="523.4414" y1="2362.7563" y2="2355.4863" /><line stroke="black" stroke-width="14" x1="523.4414" x2="523.4414" y1="2355.4863" y2="1495.2007" /><line stroke="black" stroke-width="14" x1="535.5581" x2="964.4893" y1="365.9243" y2="365.9243" /><line stroke="black" stroke-width="14" x1="1008.1094" x2="2612.3604" y1="363.501" y2="370.771" /><line stroke="black" stroke-width="14" x1="2612.3604" x2="2614.7837" y1="370.771" y2="2634.1704" /><line stroke="black" stroke-width="14" x1="2614.7837" x2="2469.3833" y1="2634.1704" y2="2643.8638" /><line stroke="black" stroke-width="14" x1="2469.3833" x2="2021.0654" y1="2643.8638" y2="2643.8638" /><line stroke="black" stroke-width="14" x1="1907.1685" x2="1909.5918" y1="2634.1704" y2="1781.1548" /><line stroke="black" stroke-width="14" x1="1885.3584" x2="1887.7817" y1="1587.2876" y2="1727.8413" /><line stroke="black" stroke-width="14" x1="1907.1685" x2="1899.8984" y1="1771.4614" y2="2360.333" /><line stroke="black" stroke-width="14" x1="1899.8984" x2="1490.354" y1="2360.333" y2="2367.603" /><line stroke="black" stroke-width="14" x1="1490.354" x2="1008.1094" y1="2367.603" y2="2355.4863" /><line stroke="black" stroke-width="14" x1="1008.1094" x2="1012.9561" y1="2355.4863" y2="1936.2485" /><line stroke="black" stroke-width="14" x1="1012.9561" x2="1480.6606" y1="1936.2485" y2="1928.9785" /><line stroke="black" stroke-width="14" x1="1480.6606" x2="1483.084" y1="1928.9785" y2="1500.0474" /><line stroke="black" stroke-width="14" x1="1483.084" x2="523.4414" y1="1500.0474" y2="1487.9307" /><line stroke="black" stroke-width="14" x1="523.4414" x2="521.0181" y1="1487.9307" y2="441.0479" /><line stroke="black" stroke-width="14" x1="521.0181" x2="523.4414" y1="441.0479" y2="2355.4863" /><line stroke="black" stroke-width="14" x1="523.4414" x2="756.082" y1="2355.4863" y2="2374.873" /><line stroke="black" stroke-width="14" x1="756.082" x2="1005.686" y1="2374.873" y2="2357.9097" /><line stroke="black" stroke-width="14" x1="1005.686" x2="1630.9077" y1="2357.9097" y2="2362.7563" /><line stroke="black" stroke-width="14" x1="1635.7544" x2="1899.8984" y1="2367.603" y2="2360.333" /><line stroke="black" stroke-width="14" x1="1899.8984" x2="1907.1685" y1="2360.333" y2="2636.5938" /><line stroke="black" stroke-width="14" x1="2021.0654" x2="2469.3833" y1="2643.8638" y2="2643.8638" /><line stroke="black" stroke-width="14" x1="2469.3833" x2="2614.7837" y1="2643.8638" y2="2634.1704" /><line stroke="black" stroke-width="14" x1="2614.7837" x2="2612.3604" y1="2634.1704" y2="368.3477" /><line stroke="black" stroke-width="14" x1="2612.3604" x2="797.2788" y1="368.3477" y2="363.501" /><line stroke="black" stroke-width="14" x1="4713.396" x2="4563.1489" y1="33.9268" y2="36.3501" /><line stroke="black" stroke-width="14" x1="4558.3022" x2="4349.895" y1="36.3501" y2="36.3501" /><line stroke="black" stroke-width="14" x1="4267.5015" x2="4713.396" y1="36.3501" y2="33.9268" /><line stroke="black" stroke-width="14" x1="4924.2266" x2="4926.6499" y1="104.2036" y2="397.4277" /><line stroke="black" stroke-width="14" x1="4926.6499" x2="4926.6499" y1="598.5649" y2="2413.6465" /><line stroke="black" stroke-width="14" x1="4960.5767" x2="4960.5767" y1="2447.5732" y2="2689.9072" /><line stroke="black" stroke-width="14" x1="4924.2266" x2="4921.8032" y1="2723.834" y2="3244.8521" /><line stroke="black" stroke-width="14" x1="4921.8032" x2="4931.4966" y1="3244.8521" y2="3404.7925" /><line stroke="black" stroke-width="14" x1="4924.2266" x2="4921.8032" y1="3375.7124" y2="3206.0786" /><line stroke="black" stroke-width="14" x1="4924.2266" x2="4926.6499" y1="3201.2319" y2="2975.8613" /><line stroke="black" stroke-width="14" x1="4960.5767" x2="4960.5767" y1="2752.9141" y2="2384.5664" /><line stroke="black" stroke-width="14" x1="4929.0732" x2="4929.0732" y1="2333.6763" y2="2159.1958" /><line stroke="black" stroke-width="14" x1="4929.0732" x2="4926.6499" y1="2154.3491" y2="1003.2627" /><line stroke="black" stroke-width="14" x1="4931.4966" x2="4929.0732" y1="974.1826" y2="802.1255" /><line stroke="black" stroke-width="14" x1="4926.6499" x2="4929.0732" y1="797.2788" y2="666.4185" /><line stroke="black" stroke-width="14" x1="4931.4966" x2="4713.396" y1="0.0" y2="0.0" /></g><g id="doors"><rect fill="blue" fill-opacity="0.5" height="70.2769" stroke="darkblue" stroke-width="7" width="317.4575" x="1512.1641" y="2333.6763" /><text fill="white" font-size="35" font-weight="bold" text-anchor="middle" x="1670.892822265625" y="2368.814697265625">D1</text><rect fill="blue" fill-opacity="0.5" height="65.4302" stroke="darkblue" stroke-width="7" width="210.8306" x="1744.8047" y="331.9976" /><text fill="white" font-size="32" font-weight="bold" text-anchor="middle" x="1850.219970703125" y="364.712646484375">D2</text><rect fill="blue" fill-opacity="0.5" height="63.0068" stroke="darkblue" stroke-width="7" width="222.9473" x="671.2651" y="2338.5229" /><text fill="white" font-size="31" font-weight="bold" text-anchor="middle" x="782.73876953125" y="2370.0263671875">D3</text><rect fill="blue" fill-opacity="0.5" height="220.5239" stroke="darkblue" stroke-width="7" width="55.7368" x="1875.665" y="1967.752" /><text fill="white" font-size="27" font-weight="bold" text-anchor="middle" x="1903.533447265625" y="2078.013916015625">D4</text><rect fill="blue" fill-opacity="0.5" height="53.3135" stroke="darkblue" stroke-width="7" width="169.6338" x="673.6885" y="1466.1206" /><text fill="white" font-size="26" font-weight="bold" text-anchor="middle" x="758.50537109375" y="1492.77734375">D5</text><rect fill="blue" fill-opacity="0.5" height="172.0571" stroke="darkblue" stroke-width="7" width="55.7368" x="1461.2739" y="1592.1343" /><text fill="white" font-size="27" font-weight="bold" text-anchor="middle" x="1489.142333984375" y="1678.162841796875">D6</text><rect fill="blue" fill-opacity="0.5" height="109.0503" stroke="darkblue" stroke-width="7" width="9.6934" x="537.9814" y="1650.2944" /><text fill="white" font-size="4" font-weight="bold" text-anchor="middle" x="542.828125" y="1704.819580078125">D7</text></g><g id="windows"><rect fill="cyan" fill-opacity="0.5" height="82.3936" stroke="blue" stroke-width="7" width="550.0981" x="1987.1387" y="2614.7837" /><text fill="black" font-size="41" font-weight="bold" text-anchor="middle" x="2262.187744140625" y="2655.98046875">W1</text><rect fill="cyan" fill-opacity="0.5" height="79.9702" stroke="blue" stroke-width="7" width="382.8877" x="690.6519" y="334.4209" /><text fill="black" font-size="39" font-weight="bold" text-anchor="middle" x="882.095703125" y="374.406005859375">W2</text><rect fill="cyan" fill-opacity="0.5" height="378.041" stroke="blue" stroke-width="7" width="55.7368" x="494.3613" y="530.7114" /><text fill="black" font-size="27" font-weight="bold" text-anchor="middle" x="522.229736328125" y="719.73193359375">W3</text><rect fill="cyan" fill-opacity="0.5" height="63.0068" stroke="blue" stroke-width="7" width="237.4873" x="1504.894" y="334.4209" /><text fill="black" font-size="31" font-weight="bold" text-anchor="middle" x="1623.6376953125" y="365.92431640625">W4</text><rect fill="cyan" fill-opacity="0.5" height="155.0938" stroke="blue" stroke-width="7" width="55.7368" x="494.3613" y="1638.1777" /><text fill="black" font-size="27" font-weight="bold" text-anchor="middle" x="522.229736328125" y="1715.724609375">W5</text><rect fill="cyan" fill-opacity="0.5" height="152.6704" stroke="blue" stroke-width="7" width="53.3135" x="2590.5503" y="1531.5508" /><text fill="black" font-size="26" font-weight="bold" text-anchor="middle" x="2617.20703125" y="1607.885986328125">W6</text><rect fill="cyan" fill-opacity="0.5" height="155.0938" stroke="blue" stroke-width="7" width="53.3135" x="2590.5503" y="1269.8301" /><text fill="black" font-size="26" font-weight="bold" text-anchor="middle" x="2617.20703125" y="1347.376953125">W7</text></g><g id="junctions"><circle cx="1890.2051" cy="1497.624" fill="red" r="12" /><circle cx="1487.9307" cy="1936.2485" fill="blue" r="7" /><circle cx="2619.6304" cy="2646.2871" fill="blue" r="7" /><circle cx="4924.2266" cy="3470.2227" fill="blue" r="7" /><circle cx="521.0181" cy="2362.7563" fill="darkblue" r="7" /><circle cx="1907.1685" cy="2646.2871" fill="darkblue" r="7" /><circle cx="521.0181" cy="365.9243" fill="cyan" r="7" /><circle cx="4926.6499" cy="38.7734" fill="darkcyan" r="7" /><circle cx="2619.6304" cy="363.501" fill="darkcyan" r="7" /><circle cx="1490.354" cy="1495.2007" fill="darkcyan" r="7" /><circle cx="1003.2627" cy="1497.624" fill="gray" r="7" /><circle cx="1907.1685" cy="2367.603" fill="gray" r="7" /><circle cx="1010.5327" cy="2362.7563" fill="gray" r="7" /><circle cx="521.0181" cy="1492.7773" fill="gray" r="7" /><circle cx="1005.686" cy="1938.6719" fill="gray" r="7" /><circle cx="695.4985" cy="363.501" fill="gray" r="7" /><circle cx="1739.958" cy="363.501" fill="gray" r="7" /><circle cx="1509.7407" cy="365.9243" fill="gray" r="7" /><circle cx="678.5352" cy="1492.7773" fill="gray" r="7" /><circle cx="673.6885" cy="2370.0264" fill="gray" r="7" /><circle cx="1509.7407" cy="2370.0264" fill="gray" r="7" /><circle cx="1989.562" cy="2641.4404" fill="gray" r="7" /><circle cx="1735.1113" cy="363.501" fill="gray" r="7" /><circle cx="1953.2119" cy="363.501" fill="gray" r="7" /><circle cx="1071.1162" cy="365.9243" fill="gray" r="7" /><circle cx="843.3223" cy="1495.2007" fill="gray" r="7" /><circle cx="891.7891" cy="2365.1797" fill="gray" r="7" /><circle cx="1827.1982" cy="2365.1797" fill="gray" r="7" /><circle cx="2534.8135" cy="2643.8638" fill="gray" r="7" /><circle cx="523.4414" cy="533.1348" fill="gray" r="7" /><circle cx="2619.6304" cy="1272.2534" fill="gray" r="7" /><circle cx="2619.6304" cy="1533.9741" fill="gray" r="7" /><circle cx="1490.354" cy="1592.1343" fill="gray" r="7" /><circle cx="523.4414" cy="1640.6011" fill="gray" r="7" /><circle cx="1904.7451" cy="1967.752" fill="gray" r="7" /><circle cx="523.4414" cy="908.7524" fill="gray" r="7" /><circle cx="2617.207" cy="1424.9238" fill="gray" r="7" /><circle cx="2617.207" cy="1686.6445" fill="gray" r="7" /><circle cx="1492.7773" cy="1761.7681" fill="gray" r="7" /><circle cx="523.4414" cy="1788.4248" fill="gray" r="7" /><circle cx="1904.7451" cy="2188.2759" fill="gray" r="7" /><circle cx="4880.6064" cy="3092.1816" fill="gray" r="7" /><circle cx="4885.4531" cy="3101.875" fill="gray" r="7" /><circle cx="4895.1465" cy="3101.875" fill="gray" r="7" /><circle cx="4887.8765" cy="3264.2388" fill="gray" r="7" /></g></svg>