<?xml version="1.0" encoding="utf-8" ?>
<svg baseProfile="tiny" height="597" version="1.2" width="845" xmlns="http://www.w3.org/2000/svg" xmlns:ev="http://www.w3.org/2001/xml-events" xmlns:xlink="http://www.w3.org/1999/xlink"><defs /><g id="rooms" /><g id="walls"><line stroke="#4169E1" stroke-linecap="round" stroke-width="2" x1="335.0748" x2="439.0635" y1="65.1993" y2="65.1993" /><line stroke="#4169E1" stroke-linecap="round" stroke-width="2" x1="441.952" x2="442.3647" y1="67.6752" y2="444.0153" /><line stroke="#4169E1" stroke-linecap="round" stroke-width="2" x1="439.4761" x2="416.3675" y1="446.9039" y2="447.7292" /><line stroke="#4169E1" stroke-linecap="round" stroke-width="2" x1="416.3675" x2="332.1862" y1="447.7292" y2="446.9039" /><line stroke="#4169E1" stroke-linecap="round" stroke-width="2" x1="328.0596" x2="327.2343" y1="444.428" y2="325.9964" /><line stroke="#4169E1" stroke-linecap="round" stroke-width="2" x1="327.2343" x2="328.8849" y1="325.9964" y2="299.5865" /><line stroke="#4169E1" stroke-linecap="round" stroke-width="2" x1="321.4572" x2="321.0445" y1="294.222" y2="394.9095" /><line stroke="#4169E1" stroke-linecap="round" stroke-width="2" x1="318.156" x2="282.2551" y1="398.2108" y2="398.2108" /><line stroke="#4169E1" stroke-linecap="round" stroke-width="2" x1="282.2551" x2="257.4959" y1="398.2108" y2="401.0993" /><line stroke="#4169E1" stroke-linecap="round" stroke-width="2" x1="255.8453" x2="178.2664" y1="399.0361" y2="398.6234" /><line stroke="#4169E1" stroke-linecap="round" stroke-width="2" x1="174.9651" x2="174.5525" y1="396.1475" y2="335.9001" /><line stroke="#4169E1" stroke-linecap="round" stroke-width="2" x1="177.0284" x2="256.2579" y1="333.0115" y2="332.1862" /><line stroke="#4169E1" stroke-linecap="round" stroke-width="2" x1="256.2579" x2="255.8453" y1="332.1862" y2="251.3061" /><line stroke="#4169E1" stroke-linecap="round" stroke-width="2" x1="255.8453" x2="95.323" y1="251.3061" y2="250.4808" /><line stroke="#4169E1" stroke-linecap="round" stroke-width="2" x1="92.4344" x2="92.0218" y1="248.0048" y2="79.6422" /><line stroke="#4169E1" stroke-linecap="round" stroke-width="2" x1="327.647" x2="85.832" y1="57.7715" y2="59.4221" /><line stroke="#4169E1" stroke-linecap="round" stroke-width="2" x1="85.832" x2="85.4193" y1="59.4221" y2="399.0361" /><line stroke="#4169E1" stroke-linecap="round" stroke-width="2" x1="448.5545" x2="328.0596" y1="59.4221" y2="57.7715" /><line stroke="#4169E1" stroke-linecap="round" stroke-width="2" x1="448.5545" x2="448.5545" y1="452.681" y2="59.4221" /><line stroke="#4169E1" stroke-linecap="round" stroke-width="2" x1="321.4572" x2="448.5545" y1="453.0937" y2="452.681" /><line stroke="#4169E1" stroke-linecap="round" stroke-width="2" x1="321.0445" x2="321.4572" y1="408.9398" y2="453.0937" /><line stroke="#4169E1" stroke-linecap="round" stroke-width="2" x1="286.3816" x2="318.5686" y1="406.0512" y2="405.6385" /></g><g id="pillars" /><g id="windows"><rect fill="#00CED1" fill-opacity="0.7" height="9.9037" stroke="darkcyan" stroke-width="1" width="93.6724" x="338.376" y="445.6659" /><text fill="black" font-size="4" font-weight="bold" text-anchor="middle" x="385.21217005843243" y="450.6177715091678">W1</text><rect fill="#00CED1" fill-opacity="0.7" height="11.5543" stroke="darkcyan" stroke-width="1" width="64.374" x="118.0189" y="57.3589" /><text fill="black" font-size="5" font-weight="bold" text-anchor="middle" x="150.20592383638927" y="63.13600644771308">W2</text><rect fill="#00CED1" fill-opacity="0.7" height="63.9613" stroke="darkcyan" stroke-width="1" width="9.491" x="84.1813" y="90.7838" /><text fill="black" font-size="4" font-weight="bold" text-anchor="middle" x="88.92685875478541" y="122.76445698166432">W3</text><rect fill="#00CED1" fill-opacity="0.7" height="9.9037" stroke="darkcyan" stroke-width="1" width="40.0274" x="256.6706" y="56.9462" /><text fill="black" font-size="4" font-weight="bold" text-anchor="middle" x="276.684263550272" y="61.898045536973605">W4</text><rect fill="#00CED1" fill-opacity="0.7" height="25.9972" stroke="darkcyan" stroke-width="1" width="8.6657" x="84.594" y="278.9539" /><text fill="black" font-size="4" font-weight="bold" text-anchor="middle" x="88.92685875478541" y="291.95244811605886">W5</text><rect fill="#00CED1" fill-opacity="0.7" height="26.4098" stroke="darkcyan" stroke-width="1" width="8.2531" x="441.5394" y="216.2305" /><text fill="black" font-size="4" font-weight="bold" text-anchor="middle" x="445.66592786621" y="229.4354221237155">W6</text><rect fill="#00CED1" fill-opacity="0.7" height="25.5845" stroke="darkcyan" stroke-width="1" width="8.2531" x="441.5394" y="261.2098" /><text fill="black" font-size="4" font-weight="bold" text-anchor="middle" x="445.66592786621" y="274.00201491033647">W7</text></g><g id="doors"><rect fill="#228B22" fill-opacity="0.7" height="11.967" stroke="darkgreen" stroke-width="1" width="54.0576" x="257.4959" y="397.3855" /><text fill="white" font-size="5" font-weight="bold" text-anchor="middle" x="284.524682651622" y="403.3689300826113">D1</text><rect fill="#228B22" fill-opacity="0.7" height="11.1416" stroke="darkgreen" stroke-width="1" width="35.9009" x="297.1106" y="56.5335" /><text fill="white" font-size="5" font-weight="bold" text-anchor="middle" x="315.06105178319564" y="62.104372355430186">D2</text><rect fill="#228B22" fill-opacity="0.7" height="10.729" stroke="darkgreen" stroke-width="1" width="37.9641" x="114.3051" y="398.2108" /><text fill="white" font-size="5" font-weight="bold" text-anchor="middle" x="133.28712472294984" y="403.5752569010679">D3</text><rect fill="#228B22" fill-opacity="0.7" height="37.5515" stroke="darkgreen" stroke-width="1" width="9.491" x="319.3939" y="335.0748" /><text fill="white" font-size="4" font-weight="bold" text-anchor="middle" x="324.13943179528513" y="353.85049365303246">D4</text><rect fill="#228B22" fill-opacity="0.7" height="9.0784" stroke="darkgreen" stroke-width="1" width="28.8858" x="114.7177" y="249.6555" /><text fill="white" font-size="4" font-weight="bold" text-anchor="middle" x="129.16058835381827" y="254.19464033850494">D5</text><rect fill="#228B22" fill-opacity="0.7" height="29.2984" stroke="darkgreen" stroke-width="1" width="9.491" x="248.8301" y="271.1134" /><text fill="white" font-size="4" font-weight="bold" text-anchor="middle" x="253.57565988313522" y="285.76264356236146">D6</text></g><g id="pillar_polygons"><polygon fill="#FFD700" opacity="0.7" points="92.4344,446.0786 89.9585,446.4912 85.4193,451.0304 85.0066,453.0937 86.6573,454.7443 89.1332,454.7443 94.085,449.7925 94.085,447.7292" stroke="darkred" stroke-width="0" /><text fill="black" font-size="4" font-weight="bold" text-anchor="middle" x="89.5974209147693" y="450.4630263953254">P</text><polygon fill="#FFD700" opacity="0.7" points="210.0407,445.6659 207.9774,446.0786 202.6129,451.8557 204.6762,454.7443 207.9774,453.919 212.104,449.3798" stroke="darkred" stroke-width="0" /><text fill="black" font-size="4" font-weight="bold" text-anchor="middle" x="207.56477936731815" y="450.27389347840693">P</text></g><g id="foundation"><polygon fill="none" opacity="1.0" points="85.0066,57.7715 448.5545,57.7715 448.5545,454.7443 85.0066,454.7443" stroke="#FF0000" stroke-width="1" /><text fill="#FF0000" font-size="5" font-weight="bold" opacity="0.8" text-anchor="middle" x="266.7805762643562" y="256.25790852307074">FOUNDATION</text></g><g id="building_outline"><polygon fill="none" opacity="1.0" points="118.4316,61.898 88.7205,62.3107 89.1332,90.7838 89.1332,154.7451 88.7205,254.1946 89.1332,279.3665 89.1332,304.5384 88.7205,402.3373 114.7177,403.5753 151.8565,402.7499 172.0766,402.3373 257.0832,403.5753 311.1408,402.7499 324.7584,403.1626 324.7584,450.6178 338.7886,449.7925 431.6357,450.2051 446.0786,450.6178 445.6659,287.2069 446.0786,261.2098 445.6659,242.6403 446.0786,216.6432 446.0786,61.898 332.5988,61.898 296.2853,61.898 295.46,61.898 257.0832,62.3107 182.3929,62.3107 118.4316,61.898" stroke="#FFFF00" stroke-width="1" /><text fill="#FFFF00" font-size="5" font-weight="bold" opacity="0.8" text-anchor="middle" x="252.61517296963046" y="250.73688744988777">BUILDING OUTLINE</text></g><g font-size="5" id="legend"><rect fill="#8B4513" height="6" stroke="black" stroke-width="1" width="8" x="8" y="8" /><text fill="black" font-family="Arial" x="20" y="12">Walls (Hatching)</text><rect fill="#4169E1" height="6" stroke="black" stroke-width="1" width="8" x="8" y="18" /><text fill="black" font-family="Arial" x="20" y="22">Walls (DL)</text><rect fill="#00CED1" height="6" stroke="black" stroke-width="1" width="8" x="8" y="28" /><text fill="black" font-family="Arial" x="20" y="32">Windows</text><rect fill="#228B22" height="6" stroke="black" stroke-width="1" width="8" x="8" y="38" /><text fill="black" font-family="Arial" x="20" y="42">Doors</text><rect fill="#FF6347" height="6" stroke="black" stroke-width="1" width="8" x="8" y="48" /><text fill="black" font-family="Arial" x="20" y="52">Pillars</text><rect fill="#FFD700" height="6" stroke="black" stroke-width="1" width="8" x="8" y="58" /><text fill="black" font-family="Arial" x="20" y="62">Pillar Polygons</text><rect fill="#F0F8FF" height="6" stroke="black" stroke-width="1" width="8" x="8" y="68" /><text fill="black" font-family="Arial" x="20" y="72">Rooms</text><rect fill="#FF0000" height="6" stroke="black" stroke-width="1" width="8" x="8" y="78" /><text fill="black" font-family="Arial" x="20" y="82">Foundation</text><rect fill="#FFFF00" height="6" stroke="black" stroke-width="1" width="8" x="8" y="88" /><text fill="black" font-family="Arial" x="20" y="92">Building Outline</text></g><g id="title"><text fill="black" font-family="Arial" font-size="8" font-weight="bold" text-anchor="middle" x="422" y="12">Floor Plan Detection Results</text></g><g font-size="4" id="statistics"><text fill="black" font-family="Arial" x="784" y="12">Walls: 22</text><text fill="black" font-family="Arial" x="784" y="22">Windows: 7</text><text fill="black" font-family="Arial" x="784" y="32">Doors: 6</text><text fill="black" font-family="Arial" x="784" y="42">Pillars: 0</text><text fill="black" font-family="Arial" x="784" y="52">Pillar Polygons: 2</text><text fill="black" font-family="Arial" x="784" y="62">Rooms: 1</text><text fill="black" font-family="Arial" x="784" y="72">Foundations: 1</text><text fill="black" font-family="Arial" x="784" y="82">Building Outlines: 1</text></g></svg>