<?xml version="1.0" encoding="utf-8" ?>
<svg baseProfile="tiny" height="2450" version="1.2" width="2249" xmlns="http://www.w3.org/2000/svg" xmlns:ev="http://www.w3.org/2001/xml-events" xmlns:xlink="http://www.w3.org/1999/xlink"><defs /><rect fill="white" height="2450" width="2249" x="0" y="0" /><g id="walls"><line stroke="#2C3E50" stroke-linecap="round" stroke-width="8" x1="924.8257" x2="1048.416" y1="2112.2622" y2="2092.8755" /><line stroke="#34495E" stroke-linecap="round" stroke-width="8" x1="1215.6265" x2="1070.2261" y1="2056.5254" y2="2073.4888" /><line stroke="#34495E" stroke-linecap="round" stroke-width="8" x1="1426.457" x2="1215.6265" y1="2056.5254" y2="2056.5254" /><line stroke="#34495E" stroke-linecap="round" stroke-width="8" x1="1445.8438" x2="1443.4204" y1="1445.8438" y2="2037.1387" /><line stroke="#34495E" stroke-linecap="round" stroke-width="8" x1="1060.5327" x2="604.9448" y1="2061.3721" y2="2058.9487" /><line stroke="#34495E" stroke-linecap="round" stroke-width="8" x1="585.5581" x2="583.1348" y1="2044.4087" y2="1690.6011" /><line stroke="#34495E" stroke-linecap="round" stroke-width="8" x1="597.6748" x2="1062.9561" y1="1673.6377" y2="1668.791" /><line stroke="#34495E" stroke-linecap="round" stroke-width="8" x1="1062.9561" x2="1060.5327" y1="1668.791" y2="1193.8164" /><line stroke="#2C3E50" stroke-linecap="round" stroke-width="8" x1="1050.8394" x2="774.5786" y1="1188.9697" y2="1193.8164" /><line stroke="#34495E" stroke-linecap="round" stroke-width="8" x1="1060.5327" x2="117.8535" y1="1193.8164" y2="1188.9697" /><line stroke="#34495E" stroke-linecap="round" stroke-width="8" x1="100.8901" x2="98.4668" y1="1174.4297" y2="185.707" /><line stroke="#2C3E50" stroke-linecap="round" stroke-width="8" x1="995.1025" x2="619.4849" y1="1634.8643" y2="1630.0176" /><line stroke="#34495E" stroke-linecap="round" stroke-width="8" x1="1031.4526" x2="1021.7593" y1="1314.9834" y2="1613.0542" /><line stroke="#34495E" stroke-linecap="round" stroke-width="8" x1="1004.7959" x2="600.0981" y1="1632.4409" y2="1634.8643" /><line stroke="#34495E" stroke-linecap="round" stroke-width="8" x1="583.1348" x2="583.1348" y1="1622.7476" y2="1249.5532" /><line stroke="#34495E" stroke-linecap="round" stroke-width="8" x1="607.3682" x2="999.9492" y1="1230.1665" y2="1227.7432" /><line stroke="#2C3E50" stroke-linecap="round" stroke-width="8" x1="57.27" x2="59.6934" y1="100.8901" y2="251.1372" /><line stroke="#34495E" stroke-linecap="round" stroke-width="8" x1="1482.1938" x2="62.1167" y1="57.27" y2="66.9634" /><line stroke="#34495E" stroke-linecap="round" stroke-width="8" x1="62.1167" x2="59.6934" y1="66.9634" y2="2061.3721" /><line stroke="#34495E" stroke-linecap="round" stroke-width="8" x1="2192.2324" x2="1484.6172" y1="66.9634" y2="57.27" /><line stroke="#34495E" stroke-linecap="round" stroke-width="8" x1="2192.2324" x2="2192.2324" y1="2376.4062" y2="66.9634" /><line stroke="#34495E" stroke-linecap="round" stroke-width="8" x1="1445.8438" x2="2192.2324" y1="2378.8296" y2="2376.4062" /><line stroke="#34495E" stroke-linecap="round" stroke-width="8" x1="1443.4204" x2="1445.8438" y1="2119.5322" y2="2378.8296" /><line stroke="#34495E" stroke-linecap="round" stroke-width="8" x1="1239.8599" x2="1428.8804" y1="2102.5688" y2="2100.1455" /><line stroke="#34495E" stroke-linecap="round" stroke-width="8" x1="1525.814" x2="2136.4956" y1="100.8901" y2="100.8901" /><line stroke="#34495E" stroke-linecap="round" stroke-width="8" x1="2153.459" x2="2155.8823" y1="115.4302" y2="2325.5161" /><line stroke="#34495E" stroke-linecap="round" stroke-width="8" x1="2138.9189" x2="2003.2119" y1="2342.4795" y2="2347.3262" /><line stroke="#34495E" stroke-linecap="round" stroke-width="8" x1="2003.2119" x2="1508.8506" y1="2347.3262" y2="2342.4795" /><line stroke="#34495E" stroke-linecap="round" stroke-width="8" x1="1484.6172" x2="1479.7705" y1="2327.9395" y2="1632.4409" /><line stroke="#34495E" stroke-linecap="round" stroke-width="8" x1="1479.7705" x2="1489.4639" y1="1632.4409" y2="1477.3472" /></g><g id="pillars"><rect fill="#E74C3C" fill-opacity="0.6" height="31.5034" stroke="darkred" stroke-width="2" width="31.5034" x="268.1006" y="1050.8394" /><rect fill="#E74C3C" fill-opacity="0.6" height="63.0068" stroke="darkred" stroke-width="2" width="60.5835" x="360.1875" y="2231.0059" /><rect fill="#E74C3C" fill-opacity="0.6" height="53.3135" stroke="darkred" stroke-width="2" width="53.3135" x="1210.7798" y="2235.8525" /><rect fill="#E74C3C" fill-opacity="0.6" height="70.2769" stroke="darkred" stroke-width="2" width="79.9702" x="728.5352" y="2323.0928" /><rect fill="#E74C3C" fill-opacity="0.6" height="70.2769" stroke="darkred" stroke-width="2" width="70.2769" x="50.0" y="2330.3628" /></g><g id="windows"><rect fill="#3498DB" fill-opacity="0.7" height="58.1602" stroke="darkblue" stroke-width="3" width="550.0981" x="1545.2007" y="2335.2095" /><rect fill="#3498DB" fill-opacity="0.7" height="67.8535" stroke="darkblue" stroke-width="3" width="378.041" x="251.1372" y="54.8467" /><rect fill="#3498DB" fill-opacity="0.7" height="375.6177" stroke="darkblue" stroke-width="3" width="55.7368" x="52.4233" y="251.1372" /><rect fill="#3498DB" fill-opacity="0.7" height="58.1602" stroke="darkblue" stroke-width="3" width="235.064" x="1065.3794" y="52.4233" /><rect fill="#3498DB" fill-opacity="0.7" height="152.6704" stroke="darkblue" stroke-width="3" width="50.8901" x="54.8467" y="1356.1802" /><rect fill="#3498DB" fill-opacity="0.7" height="155.0938" stroke="darkblue" stroke-width="3" width="48.4668" x="2151.0356" y="987.8325" /><rect fill="#3498DB" fill-opacity="0.7" height="150.2471" stroke="darkblue" stroke-width="3" width="48.4668" x="2151.0356" y="1251.9766" /></g><g id="doors"><rect fill="#E67E22" fill-opacity="0.7" height="70.2769" stroke="darkorange" stroke-width="3" width="317.4575" x="1070.2261" y="2051.6787" /><rect fill="#E67E22" fill-opacity="0.7" height="65.4302" stroke="darkorange" stroke-width="3" width="210.8306" x="1302.8667" y="50.0" /><rect fill="#E67E22" fill-opacity="0.7" height="63.0068" stroke="darkorange" stroke-width="3" width="222.9473" x="229.3271" y="2056.5254" /><rect fill="#E67E22" fill-opacity="0.7" height="220.5239" stroke="darkorange" stroke-width="3" width="55.7368" x="1433.7271" y="1685.7544" /><rect fill="#E67E22" fill-opacity="0.7" height="53.3135" stroke="darkorange" stroke-width="3" width="169.6338" x="231.7505" y="1184.123" /><rect fill="#E67E22" fill-opacity="0.7" height="172.0571" stroke="darkorange" stroke-width="3" width="55.7368" x="1019.3359" y="1310.1367" /></g></svg>