# Blender 4.5.3 LTS
# www.blender.org
mtllib 2_outline_with_openings.mtl
o Outline_Walls
v 2.935000 0.000000 -8.840000
v 8.755000 0.000000 -8.840000
v 8.755000 0.000000 -9.060000
v 2.935000 0.000000 -9.060000
v 2.935000 3.000000 -8.840000
v 8.755000 3.000000 -8.840000
v 8.755000 3.000000 -9.060000
v 2.935000 3.000000 -9.060000
v 2.930000 0.000000 -8.950000
v 3.150000 0.000000 -8.950000
v 3.150000 0.000000 -10.230000
v 2.930000 0.000000 -10.230000
v 2.930000 3.000000 -8.950000
v 3.150000 3.000000 -8.950000
v 3.150000 3.000000 -10.230000
v 2.930000 3.000000 -10.230000
v -0.005000 0.000000 -10.010000
v 3.035000 0.000000 -10.010000
v 3.035000 0.000000 -10.230000
v -0.005000 0.000000 -10.230000
v -0.005000 3.000000 -10.010000
v 3.035000 3.000000 -10.010000
v 3.035000 3.000000 -10.230000
v -0.005000 3.000000 -10.230000
v 0.000000 0.000000 -0.590000
v 0.220000 0.000000 -0.590000
v 0.220000 0.000000 -10.120000
v 0.000000 0.000000 -10.120000
v 0.000000 3.000000 -0.590000
v 0.220000 3.000000 -0.590000
v 0.220000 3.000000 -10.120000
v 0.000000 3.000000 -10.120000
v 0.115000 0.000000 -0.590000
v 8.865000 0.000000 -0.590000
v 8.865000 0.000000 -0.810000
v 0.115000 0.000000 -0.810000
v 0.115000 3.000000 -0.590000
v 8.865000 3.000000 -0.590000
v 8.865000 3.000000 -0.810000
v 0.115000 3.000000 -0.810000
v 8.645000 0.000000 -0.700000
v 8.865000 0.000000 -0.700000
v 8.865000 0.000000 -9.060000
v 8.645000 0.000000 -9.060000
v 8.645000 3.000000 -0.700000
v 8.865000 3.000000 -0.700000
v 8.865000 3.000000 -9.060000
v 8.645000 3.000000 -9.060000
v 2.365000 0.650000 -0.590000
v 0.815000 0.650000 -0.590000
v 0.815000 2.450000 -0.590000
v 2.365000 2.450000 -0.590000
v 0.815000 0.650000 -0.810000
v 0.815000 2.450000 -0.810000
v 2.365000 0.650000 -0.810000
v 2.365000 2.450000 -0.810000
v 6.505000 2.450000 -0.590000
v 6.505000 0.650000 -0.590000
v 8.055000 0.650000 -0.590000
v 8.055000 2.450000 -0.590000
v 6.505000 0.650000 -0.810000
v 6.505000 2.450000 -0.810000
v 8.055000 0.650000 -0.810000
v 8.055000 2.450000 -0.810000
v 7.225000 0.650000 -8.840000
v 8.155000 0.650000 -8.840000
v 8.155000 2.450000 -8.840000
v 7.225000 2.450000 -8.840000
v 7.225000 0.650000 -9.060000
v 7.225000 2.450000 -9.060000
v 8.155000 0.650000 -9.060000
v 8.155000 2.450000 -9.060000
v 4.495000 0.650000 -8.840000
v 3.555000 0.650000 -8.840000
v 3.555000 2.450000 -8.840000
v 4.495000 2.450000 -8.840000
v 4.495000 2.450000 -9.060000
v 3.555000 0.650000 -9.060000
v 3.555000 2.450000 -9.060000
v 4.495000 0.650000 -9.060000
v 0.220000 0.650000 -5.530000
v 0.220000 0.650000 -6.170000
v 0.220000 2.450000 -5.530000
v 0.220000 2.450000 -6.170000
v 0.000000 0.650000 -5.530000
v 0.000000 0.650000 -6.170000
v 0.000000 2.450000 -5.530000
v 0.000000 2.450000 -6.170000
v 0.220000 0.650000 -4.450000
v 0.220000 0.650000 -5.100000
v 0.220000 2.450000 -4.450000
v 0.220000 2.450000 -5.100000
v 0.000000 2.450000 -4.450000
v 0.000000 2.450000 -5.100000
v 0.000000 0.650000 -4.450000
v 0.000000 0.650000 -5.100000
v 2.715000 0.650000 -10.010000
v 2.715000 2.450000 -10.010000
v 0.445000 0.650000 -10.010000
v 0.445000 2.450000 -10.010000
v 0.445000 0.650000 -10.230000
v 0.445000 2.450000 -10.230000
v 2.715000 0.650000 -10.230000
v 2.715000 2.450000 -10.230000
v 8.865000 0.650000 -4.870000
v 8.865000 0.650000 -5.500000
v 8.865000 2.450000 -4.870000
v 8.865000 2.450000 -5.500000
v 8.645000 0.650000 -4.870000
v 8.645000 0.650000 -5.500000
v 8.645000 2.450000 -4.870000
v 8.645000 2.450000 -5.500000
vn -0.0000 -1.0000 -0.0000
vn -0.0000 1.0000 -0.0000
vn -0.0000 -0.0000 1.0000
vn 1.0000 -0.0000 -0.0000
vn -0.0000 -0.0000 -1.0000
vn -1.0000 -0.0000 -0.0000
vt 0.000000 0.000000
vt 0.625000 0.049242
vt 0.375000 0.049242
vt 0.375000 0.215909
vt 0.625000 0.215909
vt 0.625000 0.700758
vt 0.625000 0.534091
vt 0.375000 0.534091
vt 0.375000 0.700758
vt 0.125000 0.534091
vt 0.125000 0.700758
vt 0.875000 0.700758
vt 0.875000 0.534091
vt 0.625000 0.208334
vt 0.625000 0.041667
vt 0.375000 0.041667
vt 0.375000 0.208334
vt 0.375000 0.541666
vt 0.375000 0.708333
vt 0.625000 0.708333
vt 0.625000 0.541666
vt 0.125000 0.541666
vt 0.125000 0.708333
vt 0.875000 0.708333
vt 0.875000 0.541666
vt 0.625000 0.708333
vt 0.375000 0.708333
vt 0.375000 0.450758
vt 0.625000 0.450758
vt 0.625000 0.284091
vt 0.375000 0.284091
vt 0.625000 0.965909
vt 0.625000 0.799242
vt 0.375000 0.799242
vt 0.375000 0.965909
vt 0.325758 0.750000
vt 0.325758 0.500000
vt 0.159091 0.500000
vt 0.159091 0.750000
vt 0.840909 0.500000
vt 0.674242 0.500000
vt 0.674242 0.750000
vt 0.840909 0.750000
vt 0.625000 0.049243
vt 0.375000 0.049243
vt 0.375000 0.215909
vt 0.625000 0.215909
vt 0.375000 0.534091
vt 0.375000 0.700757
vt 0.625000 0.700757
vt 0.625000 0.534091
vt 0.125000 0.534091
vt 0.125000 0.700757
vt 0.875000 0.700757
vt 0.875000 0.534091
vt 0.375000 0.454545
vt 0.625000 0.454545
vt 0.625000 0.287879
vt 0.375000 0.287879
vt 0.625000 0.962121
vt 0.625000 0.795455
vt 0.375000 0.795455
vt 0.375000 0.962121
vt 0.329545 0.750000
vt 0.329545 0.500000
vt 0.162879 0.500000
vt 0.162879 0.750000
vt 0.837121 0.500000
vt 0.670455 0.500000
vt 0.670455 0.750000
vt 0.837121 0.750000
s 0
usemtl OuterWall_Yellow
f 2/1/4 3/1/4 7/1/4 6/1/4
f 7/1/5 3/1/5 71/1/5 72/1/5
f 78/1/5 4/1/5 8/1/5 79/1/5
f 77/1/5 79/1/5 8/1/5 7/1/5 72/1/5 70/1/5 69/1/5 71/1/5 3/1/5 4/1/5 78/1/5 80/1/5
f 10/1/4 11/1/4 15/1/4 14/1/4
f 11/1/5 12/1/5 16/1/5 15/1/5
f 18/1/4 19/1/4 23/1/4 22/1/4
f 102/1/5 24/1/5 23/1/5 104/1/5
f 104/1/5 23/1/5 19/1/5 20/1/5 24/1/5 102/1/5 101/1/5 103/1/5
f 20/1/6 17/1/6 21/1/6 24/1/6
f 25/1/3 26/1/3 30/1/3 29/1/3
f 27/1/5 28/1/5 32/1/5 31/1/5
f 85/1/6 86/1/6 28/1/6 25/1/6 29/1/6 32/1/6 88/1/6 87/1/6 94/1/6 93/1/6 95/1/6 96/1/6
f 87/1/6 85/1/6 96/1/6 94/1/6
f 32/1/6 28/1/6 86/1/6 88/1/6
f 51/1/3 37/1/3 33/1/3 50/1/3
f 59/1/3 34/1/3 38/1/3 60/1/3
f 49/1/3 50/1/3 33/1/3 34/1/3 59/1/3 58/1/3 57/1/3 60/1/3 38/1/3 37/1/3 51/1/3 52/1/3
f 34/1/4 35/1/4 39/1/4 38/1/4
f 36/1/6 33/1/6 37/1/6 40/1/6
f 41/1/3 42/1/3 46/1/3 45/1/3
f 43/1/4 47/1/4 108/1/4 106/1/4
f 108/1/4 47/1/4 46/1/4 42/1/4 43/1/4 106/1/4 105/1/4 107/1/4
f 43/1/5 44/1/5 48/1/5 47/1/5
f 51/2/4 50/3/4 53/4/4 54/5/4
f 52/6/6 56/7/6 55/8/6 49/9/6
f 57/2/4 58/3/4 61/4/4 62/5/4
f 63/8/6 59/9/6 60/6/6 64/7/6
f 75/15/4 74/16/4 78/17/4 79/14/4
f 76/26/6 77/21/6 80/18/6 73/27/6
f 87/32/5 83/33/5 81/34/5 85/35/5
f 93/32/5 91/33/5 89/34/5 95/35/5
f 106/56/3 108/57/3 112/58/3 110/59/3
f 111/60/5 107/61/5 105/62/5 109/63/5
usemtl InnerWall_White
f 1/1/1 4/1/1 3/1/1 2/1/1
f 5/1/2 6/1/2 7/1/2 8/1/2
f 66/1/3 2/1/3 6/1/3 67/1/3
f 75/1/3 5/1/3 1/1/3 74/1/3
f 68/1/3 67/1/3 6/1/3 5/1/3 75/1/3 76/1/3 73/1/3 74/1/3 1/1/3 2/1/3 66/1/3 65/1/3
f 4/1/6 1/1/6 5/1/6 8/1/6
f 9/1/1 12/1/1 11/1/1 10/1/1
f 13/1/2 14/1/2 15/1/2 16/1/2
f 9/1/3 10/1/3 14/1/3 13/1/3
f 12/1/6 9/1/6 13/1/6 16/1/6
f 17/1/1 20/1/1 19/1/1 18/1/1
f 21/1/2 22/1/2 23/1/2 24/1/2
f 98/1/3 22/1/3 21/1/3 100/1/3
f 100/1/3 21/1/3 17/1/3 18/1/3 22/1/3 98/1/3 97/1/3 99/1/3
f 25/1/1 28/1/1 27/1/1 26/1/1
f 29/1/2 30/1/2 31/1/2 32/1/2
f 27/1/4 31/1/4 84/1/4 82/1/4
f 83/1/4 84/1/4 31/1/4 30/1/4 26/1/4 27/1/4 82/1/4 81/1/4 90/1/4 89/1/4 91/1/4 92/1/4
f 90/1/4 81/1/4 83/1/4 92/1/4
f 33/1/1 36/1/1 35/1/1 34/1/1
f 37/1/2 38/1/2 39/1/2 40/1/2
f 53/1/5 36/1/5 40/1/5 54/1/5
f 39/1/5 35/1/5 63/1/5 64/1/5
f 56/1/5 54/1/5 40/1/5 39/1/5 64/1/5 62/1/5 61/1/5 63/1/5 35/1/5 36/1/5 53/1/5 55/1/5
f 41/1/1 44/1/1 43/1/1 42/1/1
f 45/1/2 46/1/2 47/1/2 48/1/2
f 110/1/6 44/1/6 41/1/6 45/1/6 48/1/6 112/1/6 111/1/6 109/1/6
f 48/1/6 44/1/6 110/1/6 112/1/6
f 53/10/2 50/11/2 49/9/2 55/8/2
f 52/6/1 51/12/1 54/13/1 56/7/1
f 61/10/2 58/11/2 59/9/2 63/8/2
f 60/6/1 57/12/1 62/13/1 64/7/1
f 70/14/4 68/15/4 65/16/4 69/17/4
f 71/18/6 66/19/6 67/20/6 72/21/6
f 69/22/2 65/23/2 66/19/2 71/18/2
f 67/20/1 68/24/1 70/25/1 72/21/1
f 78/22/2 74/23/2 73/27/2 80/18/2
f 76/26/1 75/24/1 79/25/1 77/21/1
f 82/28/3 84/29/3 88/30/3 86/31/3
f 81/36/2 82/37/2 86/38/2 85/39/2
f 88/40/1 84/41/1 83/42/1 87/43/1
f 96/31/3 90/28/3 92/29/3 94/30/3
f 89/36/2 90/37/2 96/38/2 95/39/2
f 94/40/1 92/41/1 91/42/1 93/43/1
f 100/44/4 99/45/4 101/46/4 102/47/4
f 103/48/6 97/49/6 98/50/6 104/51/6
f 101/52/2 99/53/2 97/49/2 103/48/2
f 98/50/1 100/54/1 102/55/1 104/51/1
f 105/64/2 106/65/2 110/66/2 109/67/2
f 112/68/1 108/69/1 107/70/1 111/71/1
