# Blender 4.5.3 LTS
# www.blender.org
mtllib wall_outline_cleaned.mtl
o Building_Outline_Merged
v 8.036667 -0.000000 -1.390000
v 8.865000 -0.000000 -1.390000
v 8.865000 -0.000000 -1.610000
v 8.036667 -0.000000 -1.610000
v 8.036667 3.000000 -1.390000
v 8.865000 3.000000 -1.390000
v 8.865000 3.000000 -1.610000
v 8.036667 3.000000 -1.610000
v 4.680000 -0.000000 -1.610000
v 6.490000 3.000000 -1.390000
v 6.490000 3.000000 -1.610000
v 4.680000 -0.000000 -1.390000
v 6.490000 -0.000000 -1.390000
v 6.490000 -0.000000 -1.610000
v 4.680000 3.000000 -1.390000
v 4.680000 3.000000 -1.610000
v 0.000000 -0.000000 -1.390000
v 2.850000 -0.000000 -1.390000
v 2.850000 -0.000000 -1.610000
v 0.000000 -0.000000 -1.610000
v 0.000000 3.000000 -1.390000
v 2.850000 3.000000 -1.390000
v 2.850000 3.000000 -1.610000
v 0.000000 3.000000 -1.610000
v 4.680000 -0.000001 -9.665000
v 6.740000 -0.000001 -9.885000
v 4.680000 -0.000001 -9.885000
v 4.680000 2.999999 -9.665000
v 4.680000 2.999999 -9.885000
v 2.945000 -0.000001 -9.665000
v 3.370000 -0.000001 -9.665000
v 3.370000 -0.000001 -9.885000
v 2.945000 -0.000001 -9.885000
v 2.945000 2.999999 -9.665000
v 3.370000 2.999999 -9.665000
v 3.370000 2.999999 -9.885000
v 2.945000 2.999999 -9.885000
v 8.120000 -0.000001 -9.665000
v 8.865000 -0.000001 -9.665000
v 8.865000 -0.000001 -9.885000
v 8.120000 -0.000001 -9.885000
v 8.120000 2.999999 -9.665000
v 8.865000 2.999999 -9.665000
v 8.865000 2.999999 -9.885000
v 8.120000 2.999999 -9.885000
v 6.740000 -0.000001 -9.665000
v 7.230000 -0.000001 -9.665000
v 7.230000 -0.000001 -9.885000
v 6.740000 2.999999 -9.665000
v 7.230000 2.999999 -9.665000
v 7.230000 2.999999 -9.885000
v 6.740000 2.999999 -9.885000
v 8.645000 -0.000000 -1.510000
v 8.865000 -0.000000 -1.510000
v 8.865000 -0.000000 -2.200000
v 8.645000 -0.000000 -2.200000
v 8.645000 3.000000 -1.510000
v 8.865000 3.000000 -1.510000
v 8.865000 3.000000 -2.200000
v 8.645000 3.000000 -2.200000
v 8.645000 -0.000000 -3.750000
v 8.865000 -0.000000 -3.750000
v 8.865000 -0.000000 -6.160000
v 8.645000 -0.000000 -6.160000
v 8.645000 3.000000 -3.750000
v 8.865000 3.000000 -3.750000
v 8.645000 3.000000 -6.160000
v 8.865000 -0.000001 -6.770000
v 8.645000 -0.000001 -6.770000
v 8.865000 3.000000 -6.160000
v 8.865000 3.000000 -6.770000
v 8.645000 3.000000 -6.770000
v 8.645000 -0.000001 -7.380000
v 8.865000 -0.000001 -7.380000
v 8.865000 -0.000001 -9.750000
v 8.645000 -0.000001 -9.750000
v 8.645000 3.000000 -7.380000
v 8.865000 3.000000 -7.380000
v 8.865000 2.999999 -9.750000
v 8.645000 2.999999 -9.750000
v 0.000000 -0.000000 -1.500000
v 0.220000 -0.000000 -1.500000
v 0.220000 -0.000000 -5.250000
v 0.000000 -0.000000 -5.250000
v 0.000000 3.000000 -1.500000
v 0.220000 3.000000 -1.500000
v 0.220000 3.000000 -5.250000
v 0.000000 3.000000 -5.250000
v 0.220000 -0.000000 -5.880000
v 0.000000 3.000000 -5.880000
v 0.220000 3.000000 -6.330000
v 0.000000 3.000000 -6.330000
v 0.000000 -0.000000 -5.880000
v 0.220000 -0.000000 -6.330000
v 0.000000 -0.000000 -6.330000
v 0.220000 3.000000 -5.880000
v 0.000000 -0.000001 -6.960000
v 0.220000 -0.000001 -6.960000
v 0.220000 -0.000001 -11.030000
v 0.000000 -0.000001 -11.030000
v 0.000000 3.000000 -6.960000
v 0.220000 3.000000 -6.960000
v 0.220000 2.999999 -11.030000
v 0.000000 2.999999 -11.030000
v 2.698750 -0.000001 -10.810000
v 3.150000 -0.000001 -10.810000
v 3.150000 -0.000001 -11.030000
v 2.698750 -0.000001 -11.030000
v 2.698750 2.999999 -10.810000
v 3.150000 2.999999 -10.810000
v 3.150000 2.999999 -11.030000
v 2.698750 2.999999 -11.030000
v 0.100000 -0.000001 -10.810000
v 0.450000 -0.000001 -10.810000
v 0.450000 -0.000001 -11.030000
v 0.100000 -0.000001 -11.030000
v 0.100000 2.999999 -10.810000
v 0.450000 2.999999 -10.810000
v 0.450000 2.999999 -11.030000
v 0.100000 2.999999 -11.030000
v 2.945000 -0.000001 -9.770000
v 3.165000 -0.000001 -9.770000
v 3.165000 -0.000001 -10.920000
v 2.945000 -0.000001 -10.920000
v 2.945000 2.999999 -9.770000
v 3.165000 2.999999 -9.770000
v 3.165000 2.999999 -10.920000
v 2.945000 2.999999 -10.920000
vn -0.0000 -1.0000 -0.0000
vn -0.0000 1.0000 -0.0000
vn -0.0000 -0.0000 1.0000
vn -1.0000 -0.0000 -0.0000
vn 1.0000 -0.0000 -0.0000
vn -0.0000 -0.0000 -1.0000
vt 0.000000 0.000000
vt 0.000000 1.500000
vt 0.110000 1.500000
vt 0.110000 0.000000
s 1
usemtl ExternalSideMaterial_wall_window_2_left_14_to_6
f 1/1/1 4/2/1 3/3/1 2/4/1
f 5/1/2 6/4/2 7/3/2 8/2/2
f 1/1/3 2/4/3 6/3/3 5/2/3
f 1/1/4 5/4/4 8/3/4 4/2/4
f 2/1/5 3/4/5 7/3/5 6/2/5
usemtl InternalSideMaterial_wall_window_2_left_14_to_6
f 4/1/6 8/2/6 7/3/6 3/4/6
usemtl ExternalSideMaterial_wall_window_2_right_23_to_16
f 12/1/1 9/2/1 14/3/1 13/4/1
f 15/1/2 10/4/2 11/3/2 16/2/2
f 12/1/3 13/4/3 10/3/3 15/2/3
f 12/1/4 15/4/4 16/3/4 9/2/4
f 13/1/5 14/4/5 11/3/5 10/2/5
usemtl InternalSideMaterial_wall_window_2_right_23_to_16
f 9/1/6 16/2/6 11/3/6 14/4/6
usemtl ExternalSideMaterial_wall_door_2_right_22_to_7
f 17/1/1 20/2/1 19/3/1 18/4/1
f 21/1/2 22/4/2 23/3/2 24/2/2
f 17/1/3 18/4/3 22/3/3 21/2/3
f 17/1/4 21/4/4 24/3/4 20/2/4
f 18/1/5 19/4/5 23/3/5 22/2/5
usemtl InternalSideMaterial_wall_door_2_right_22_to_7
f 20/1/6 24/2/6 23/3/6 19/4/6
usemtl ExternalSideMaterial_wall_door_1_left_19_to_11
f 25/1/1 27/2/1 26/3/1 46/4/1
f 28/1/2 49/4/2 52/3/2 29/2/2
f 27/1/6 29/2/6 52/3/6 26/4/6
f 25/1/4 28/4/4 29/3/4 27/2/4
usemtl InternalSideMaterial_wall_door_1_left_19_to_11
f 25/1/3 46/4/3 49/3/3 28/2/3
usemtl ExternalSideMaterial_wall_door_1_right_26_to_10
f 30/1/1 33/2/1 32/3/1 31/4/1
f 34/1/2 35/4/2 36/3/2 37/2/2
f 33/1/6 37/2/6 36/3/6 32/4/6
f 30/1/4 34/4/4 37/3/4 33/2/4
f 31/1/5 32/4/5 36/3/5 35/2/5
usemtl InternalSideMaterial_wall_door_1_right_26_to_10
f 30/1/3 31/4/3 35/3/3 34/2/3
usemtl ExternalSideMaterial_wall_door_3_left_18_to_4
f 38/1/1 41/2/1 40/3/1 39/4/1
f 42/1/2 43/4/2 44/3/2 45/2/2
f 41/1/6 45/2/6 44/3/6 40/4/6
f 38/1/4 42/4/4 45/3/4 41/2/4
f 39/1/5 40/4/5 44/3/5 43/2/5
usemtl InternalSideMaterial_wall_door_3_left_18_to_4
f 38/1/3 39/4/3 43/3/3 42/2/3
usemtl ExternalSideMaterial_wall_door_3_right_25_to_11
f 46/1/1 26/2/1 48/3/1 47/4/1
f 49/1/2 50/4/2 51/3/2 52/2/2
f 26/1/6 52/2/6 51/3/6 48/4/6
f 47/1/5 48/4/5 51/3/5 50/2/5
usemtl InternalSideMaterial_wall_door_3_right_25_to_11
f 46/1/3 47/4/3 50/3/3 49/2/3
usemtl ExternalSideMaterial_wall_window_3_top_28_to_6
f 53/1/1 56/2/1 55/3/1 54/4/1
f 57/1/2 58/4/2 59/3/2 60/2/2
f 53/1/3 54/4/3 58/3/3 57/2/3
f 56/1/6 60/2/6 59/3/6 55/4/6
f 54/1/5 55/4/5 59/3/5 58/2/5
usemtl InternalSideMaterial_wall_window_3_top_28_to_6
f 53/1/4 57/4/4 60/3/4 56/2/4
usemtl ExternalSideMaterial_wall_window_3_bottom_34_to_12
f 61/1/1 64/2/1 63/3/1 62/4/1
f 65/1/2 66/4/2 70/3/2 67/2/2
f 61/1/3 62/4/3 66/3/3 65/2/3
f 62/1/5 63/4/5 70/3/5 66/2/5
usemtl InternalSideMaterial_wall_window_3_bottom_34_to_12
f 61/1/4 65/4/4 67/3/4 64/2/4
usemtl ExternalSideMaterial_wall_window_5_top_32_to_12
f 64/1/1 69/2/1 68/3/1 63/4/1
f 67/1/2 70/4/2 71/3/2 72/2/2
f 69/1/6 72/2/6 71/3/6 68/4/6
f 63/1/5 68/4/5 71/3/5 70/2/5
usemtl InternalSideMaterial_wall_window_5_top_32_to_12
f 64/1/4 67/4/4 72/3/4 69/2/4
usemtl ExternalSideMaterial_wall_window_5_bottom_38_to_4
f 73/1/1 76/2/1 75/3/1 74/4/1
f 77/1/2 78/4/2 79/3/2 80/2/2
f 73/1/3 74/4/3 78/3/3 77/2/3
f 76/1/6 80/2/6 79/3/6 75/4/6
f 74/1/5 75/4/5 79/3/5 78/2/5
usemtl InternalSideMaterial_wall_window_5_bottom_38_to_4
f 73/1/4 77/4/4 80/3/4 76/2/4
usemtl ExternalSideMaterial_wall_window_6_top_29_to_7
f 81/1/1 84/2/1 83/3/1 82/4/1
f 85/1/2 86/4/2 87/3/2 88/2/2
f 81/1/3 82/4/3 86/3/3 85/2/3
f 84/1/6 88/2/6 87/3/6 83/4/6
f 81/1/4 85/4/4 88/3/4 84/2/4
usemtl InternalSideMaterial_wall_window_6_top_29_to_7
f 82/1/5 83/4/5 87/3/5 86/2/5
usemtl ExternalSideMaterial_wall_window_6_bottom_35_to_30
f 93/1/1 95/2/1 94/3/1 89/4/1
f 90/1/2 96/4/2 91/3/2 92/2/2
f 93/1/3 89/4/3 96/3/3 90/2/3
f 95/1/6 92/2/6 91/3/6 94/4/6
f 93/1/4 90/4/4 92/3/4 95/2/4
usemtl InternalSideMaterial_wall_window_6_bottom_35_to_30
f 89/1/5 94/4/5 91/3/5 96/2/5
usemtl ExternalSideMaterial_wall_window_7_bottom_36_to_3
f 97/1/1 100/2/1 99/3/1 98/4/1
f 101/1/2 102/4/2 103/3/2 104/2/2
f 97/1/3 98/4/3 102/3/3 101/2/3
f 100/1/6 104/2/6 103/3/6 99/4/6
f 97/1/4 101/4/4 104/3/4 100/2/4
usemtl InternalSideMaterial_wall_window_7_bottom_36_to_3
f 98/1/5 99/4/5 103/3/5 102/2/5
usemtl ExternalSideMaterial_wall_window_1_left_20_to_5
f 105/1/1 108/2/1 107/3/1 106/4/1
f 109/1/2 110/4/2 111/3/2 112/2/2
f 108/1/6 112/2/6 111/3/6 107/4/6
f 105/1/4 109/4/4 112/3/4 108/2/4
f 106/1/5 107/4/5 111/3/5 110/2/5
usemtl InternalSideMaterial_wall_window_1_left_20_to_5
f 105/1/3 106/4/3 110/3/3 109/2/3
usemtl ExternalSideMaterial_wall_window_1_right_27_to_3
f 113/1/1 116/2/1 115/3/1 114/4/1
f 117/1/2 118/4/2 119/3/2 120/2/2
f 116/1/6 120/2/6 119/3/6 115/4/6
f 113/1/4 117/4/4 120/3/4 116/2/4
f 114/1/5 115/4/5 119/3/5 118/2/5
usemtl InternalSideMaterial_wall_window_1_right_27_to_3
f 113/1/3 114/4/3 118/3/3 117/2/3
usemtl ExternalSideMaterial_wall_junction_5_to_10_up
f 121/1/1 124/2/1 123/3/1 122/4/1
f 125/1/2 126/4/2 127/3/2 128/2/2
f 121/1/3 122/4/3 126/3/3 125/2/3
f 124/1/6 128/2/6 127/3/6 123/4/6
f 122/1/5 123/4/5 127/3/5 126/2/5
usemtl InternalSideMaterial_wall_junction_5_to_10_up
f 121/1/4 125/4/4 128/3/4 124/2/4
